<svg xmlns="http://www.w3.org/2000/svg" width="1920" height="890"><path d="M803,518L690,621L867,963Z" fill="#bf9829" stroke="#bf9829" stroke-width="1.51"/><path d="M690,621L705,964L867,963Z" fill="#bc962a" stroke="#bc962a" stroke-width="1.51"/><path d="M390,245L266,439L690,621Z" fill="#cb9e26" stroke="#cb9e26" stroke-width="1.51"/><path d="M1353,453L887,286L803,518Z" fill="#c19a29" stroke="#c19a29" stroke-width="1.51"/><path d="M867,963L1353,453L803,518Z" fill="#bd972a" stroke="#bd972a" stroke-width="1.51"/><path d="M867,963L1440,874L1353,453Z" fill="#b7942c" stroke="#b7942c" stroke-width="1.51"/><path d="M690,621L175,905L705,964Z" fill="#c1982a" stroke="#c1982a" stroke-width="1.51"/><path d="M390,245L690,621L803,518Z" fill="#c79d27" stroke="#c79d27" stroke-width="1.51"/><path d="M867,963L1408,1408L1440,874Z" fill="#b08f2e" stroke="#b08f2e" stroke-width="1.51"/><path d="M705,964L881,1430L867,963Z" fill="#b5932d" stroke="#b5932d" stroke-width="1.51"/><path d="M698,1539L881,1430L705,964Z" fill="#b2912e" stroke="#b2912e" stroke-width="1.51"/><path d="M887,286L390,245L803,518Z" fill="#c99d27" stroke="#c99d27" stroke-width="1.51"/><path d="M1353,453L1322,166L887,286Z" fill="#c29928" stroke="#c29928" stroke-width="1.51"/><path d="M887,286L744,-84L390,245Z" fill="#cf9f25" stroke="#cf9f25" stroke-width="1.51"/><path d="M1861,143L1322,166L1353,453Z" fill="#bf972a" stroke="#bf972a" stroke-width="1.51"/><path d="M152,743L175,905L690,621Z" fill="#c69a28" stroke="#c69a28" stroke-width="1.51"/><path d="M266,439L152,743L690,621Z" fill="#c99c27" stroke="#c99c27" stroke-width="1.51"/><path d="M175,905L286,1272L705,964Z" fill="#be962b" stroke="#be962b" stroke-width="1.51"/><path d="M872,-103L744,-84L887,286Z" fill="#cfa025" stroke="#cfa025" stroke-width="1.51"/><path d="M286,1272L698,1539L705,964Z" fill="#b7932d" stroke="#b7932d" stroke-width="1.51"/><path d="M1322,166L872,-103L887,286Z" fill="#c99d26" stroke="#c99d26" stroke-width="1.51"/><path d="M698,1539L1408,1408L881,1430Z" fill="#ab8d2f" stroke="#ab8d2f" stroke-width="1.51"/><path d="M881,1430L1408,1408L867,963Z" fill="#ae8f2f" stroke="#ae8f2f" stroke-width="1.51"/><path d="M1440,874L1916,453L1353,453Z" fill="#b5932c" stroke="#b5932c" stroke-width="1.51"/><path d="M1408,1408L1694,1170L1440,874Z" fill="#aa8d30" stroke="#aa8d30" stroke-width="1.51"/><path d="M1322,166L1203,-190L872,-103Z" fill="#cc9e26" stroke="#cc9e26" stroke-width="1.51"/><path d="M342,-331L370,-218L744,-84Z" fill="#dca520" stroke="#dca520" stroke-width="1.51"/><path d="M1855,-211L1203,-190L1322,166Z" fill="#c89b27" stroke="#c89b27" stroke-width="1.51"/><path d="M1408,1408L1696,1292L1694,1170Z" fill="#a68a31" stroke="#a68a31" stroke-width="1.51"/><path d="M2184,668L1916,453L1694,1170Z" fill="#ac8e2f" stroke="#ac8e2f" stroke-width="1.51"/><path d="M1694,1170L1916,453L1440,874Z" fill="#af8f2f" stroke="#af8f2f" stroke-width="1.51"/><path d="M266,439L-146,514L152,743Z" fill="#ce9f25" stroke="#ce9f25" stroke-width="1.51"/><path d="M-447,914L-339,1155L175,905Z" fill="#ca9c28" stroke="#ca9c28" stroke-width="1.51"/><path d="M175,905L-339,1155L286,1272Z" fill="#c3982a" stroke="#c3982a" stroke-width="1.51"/><path d="M-21,-22L-146,514L266,439Z" fill="#d6a222" stroke="#d6a222" stroke-width="1.51"/><path d="M-21,-22L266,439L390,245Z" fill="#d5a223" stroke="#d5a223" stroke-width="1.51"/><path d="M744,-84L370,-218L390,245Z" fill="#d6a323" stroke="#d6a323" stroke-width="1.51"/><path d="M342,-331L744,-84L487,-649Z" fill="#dea620" stroke="#dea620" stroke-width="1.51"/><path d="M1916,453L1861,143L1353,453Z" fill="#b9952b" stroke="#b9952b" stroke-width="1.51"/><path d="M1916,453L1929,190L1861,143Z" fill="#b9942c" stroke="#b9942c" stroke-width="1.51"/><path d="M370,-218L-21,-22L390,245Z" fill="#daa421" stroke="#daa421" stroke-width="1.51"/><path d="M370,-218L342,-331L-21,-22Z" fill="#dfa720" stroke="#dfa720" stroke-width="1.51"/><path d="M1079,-522L744,-84L872,-103Z" fill="#d5a223" stroke="#d5a223" stroke-width="1.51"/><path d="M-21,-22L-287,435L-146,514Z" fill="#d9a421" stroke="#d9a421" stroke-width="1.51"/><path d="M-447,914L175,905L152,743Z" fill="#ca9c27" stroke="#ca9c27" stroke-width="1.51"/><path d="M1203,-190L1079,-522L872,-103Z" fill="#d3a224" stroke="#d3a224" stroke-width="1.51"/><path d="M1310,-520L1079,-522L1203,-190Z" fill="#d5a124" stroke="#d5a124" stroke-width="1.51"/><path d="M1310,-520L1203,-190L1855,-211Z" fill="#ce9e26" stroke="#ce9e26" stroke-width="1.51"/><path d="M2265,900L2184,668L1694,1170Z" fill="#a78b31" stroke="#a78b31" stroke-width="1.51"/><path d="M1916,453L2458,491L1929,190Z" fill="#b3912d" stroke="#b3912d" stroke-width="1.51"/><path d="M286,1272L-204,1588L698,1539Z" fill="#b8922d" stroke="#b8922d" stroke-width="1.51"/><path d="M-447,914L152,743L-146,514Z" fill="#cf9e25" stroke="#cf9e25" stroke-width="1.51"/><path d="M1855,-211L1322,166L1861,143Z" fill="#c2982a" stroke="#c2982a" stroke-width="1.51"/><path d="M2203,-8L1855,-211L1861,143Z" fill="#bf962b" stroke="#bf962b" stroke-width="1.51"/><path d="M2203,-8L1861,143L1929,190Z" fill="#bb952c" stroke="#bb952c" stroke-width="1.51"/><path d="M-287,435L-447,914L-146,514Z" fill="#d4a124" stroke="#d4a124" stroke-width="1.51"/><path d="M2111,1398L2265,900L1694,1170Z" fill="#a38932" stroke="#a38932" stroke-width="1.51"/><path d="M1696,1292L2111,1398L1694,1170Z" fill="#a28832" stroke="#a28832" stroke-width="1.51"/><path d="M1408,1408L2111,1398L1696,1292Z" fill="#a28832" stroke="#a28832" stroke-width="1.51"/><path d="M2595,1546L2111,1398L1408,1408Z" fill="#9b8534" stroke="#9b8534" stroke-width="1.51"/><path d="M-689,1548L-204,1588L-339,1155Z" fill="#c4982b" stroke="#c4982b" stroke-width="1.51"/><path d="M-339,1155L-204,1588L286,1272Z" fill="#c0962b" stroke="#c0962b" stroke-width="1.51"/><path d="M-287,435L-741,648L-447,914Z" fill="#d6a223" stroke="#d6a223" stroke-width="1.51"/><path d="M-21,-22L-388,79L-287,435Z" fill="#dea620" stroke="#dea620" stroke-width="1.51"/><path d="M-88,-590L-388,79L-21,-22Z" fill="#e6a91d" stroke="#e6a91d" stroke-width="1.51"/><path d="M342,-331L-88,-590L-21,-22Z" fill="#e5a91d" stroke="#e5a91d" stroke-width="1.51"/><path d="M1079,-522L487,-649L744,-84Z" fill="#dca520" stroke="#dca520" stroke-width="1.51"/><path d="M1576,-600L487,-649L1079,-522Z" fill="#dca521" stroke="#dca521" stroke-width="1.51"/><path d="M1310,-520L1576,-600L1079,-522Z" fill="#d6a223" stroke="#d6a223" stroke-width="1.51"/><path d="M1855,-211L1576,-600L1310,-520Z" fill="#d09e25" stroke="#d09e25" stroke-width="1.51"/><path d="M1855,-211L1962,-510L1576,-600Z" fill="#cd9c27" stroke="#cd9c27" stroke-width="1.51"/><path d="M2458,491L2203,-8L1929,190Z" fill="#b5922d" stroke="#b5922d" stroke-width="1.51"/><path d="M2458,491L1916,453L2184,668Z" fill="#ae8f2f" stroke="#ae8f2f" stroke-width="1.51"/><path d="M2446,1102L2458,491L2265,900Z" fill="#a48a31" stroke="#a48a31" stroke-width="1.51"/><path d="M2265,900L2458,491L2184,668Z" fill="#a88c30" stroke="#a88c30" stroke-width="1.51"/><path d="M2111,1398L2446,1102L2265,900Z" fill="#9f8733" stroke="#9f8733" stroke-width="1.51"/><path d="M2553,-641L1962,-510L2203,-8Z" fill="#c5982a" stroke="#c5982a" stroke-width="1.51"/><path d="M2203,-8L1962,-510L1855,-211Z" fill="#c4992a" stroke="#c4992a" stroke-width="1.51"/><path d="M-388,79L-741,648L-287,435Z" fill="#dca520" stroke="#dca520" stroke-width="1.51"/><path d="M-447,914L-689,1548L-339,1155Z" fill="#ca9b28" stroke="#ca9b28" stroke-width="1.51"/><path d="M487,-649L-88,-590L342,-331Z" fill="#e8aa1c" stroke="#e8aa1c" stroke-width="1.51"/><path d="M-388,79L-735,-124L-741,648Z" fill="#e4a81e" stroke="#e4a81e" stroke-width="1.51"/><path d="M2458,491L2512,181L2203,-8Z" fill="#b3912e" stroke="#b3912e" stroke-width="1.51"/><path d="M2683,-157L2512,181L2458,491Z" fill="#b1902e" stroke="#b1902e" stroke-width="1.51"/><path d="M-741,648L-689,1548L-447,914Z" fill="#d19e26" stroke="#d19e26" stroke-width="1.51"/><path d="M-88,-590L-735,-124L-388,79Z" fill="#ebab1a" stroke="#ebab1a" stroke-width="1.51"/><path d="M2446,1102L2595,1546L2458,491Z" fill="#9e8633" stroke="#9e8633" stroke-width="1.51"/><path d="M2111,1398L2595,1546L2446,1102Z" fill="#998334" stroke="#998334" stroke-width="1.51"/><path d="M698,1539L2595,1546L1408,1408Z" fill="#a18832" stroke="#a18832" stroke-width="1.51"/><path d="M-204,1588L2595,1546L698,1539Z" fill="#a88c31" stroke="#a88c31" stroke-width="1.51"/><path d="M2512,181L2683,-157L2203,-8Z" fill="#b7932d" stroke="#b7932d" stroke-width="1.51"/><path d="M2595,1546L2683,-157L2458,491Z" fill="#a68b31" stroke="#a68b31" stroke-width="1.51"/><path d="M487,-649L-708,-662L-88,-590Z" fill="#f1ad17" stroke="#f1ad17" stroke-width="1.51"/><path d="M-88,-590L-708,-662L-735,-124Z" fill="#f4af16" stroke="#f4af16" stroke-width="1.51"/><path d="M2683,-157L2553,-641L2203,-8Z" fill="#be952c" stroke="#be952c" stroke-width="1.51"/><path d="M1962,-510L2553,-641L1576,-600Z" fill="#cd9c28" stroke="#cd9c28" stroke-width="1.51"/><path d="M1576,-600L2553,-641L487,-649Z" fill="#d6a124" stroke="#d6a124" stroke-width="1.51"/><path d="M487,-649L2553,-641L-708,-662Z" fill="#e2a81e" stroke="#e2a81e" stroke-width="1.51"/></svg>