<svg xmlns="http://www.w3.org/2000/svg" width="1920" height="650"><path d="M850,330L831,158L570,229Z" fill="#ca9d26" stroke="#ca9d26" stroke-width="1.51"/><path d="M570,229L520,369L850,330Z" fill="#c99e26" stroke="#c99e26" stroke-width="1.51"/><path d="M831,158L561,-4L570,229Z" fill="#d1a124" stroke="#d1a124" stroke-width="1.51"/><path d="M272,205L452,430L520,369Z" fill="#cd9f25" stroke="#cd9f25" stroke-width="1.51"/><path d="M831,158L760,-56L561,-4Z" fill="#d4a123" stroke="#d4a123" stroke-width="1.51"/><path d="M558,635L902,582L850,330Z" fill="#bf972a" stroke="#bf972a" stroke-width="1.51"/><path d="M272,205L520,369L570,229Z" fill="#cfa025" stroke="#cfa025" stroke-width="1.51"/><path d="M561,-4L484,8L570,229Z" fill="#d6a323" stroke="#d6a323" stroke-width="1.51"/><path d="M686,-255L484,8L561,-4Z" fill="#dca520" stroke="#dca520" stroke-width="1.51"/><path d="M850,330L1155,144L831,158Z" fill="#c79c27" stroke="#c79c27" stroke-width="1.51"/><path d="M558,635L850,330L520,369Z" fill="#c49a28" stroke="#c49a28" stroke-width="1.51"/><path d="M452,430L558,635L520,369Z" fill="#c69b28" stroke="#c69b28" stroke-width="1.51"/><path d="M484,8L272,205L570,229Z" fill="#d5a223" stroke="#d5a223" stroke-width="1.51"/><path d="M452,430L461,636L558,635Z" fill="#c39929" stroke="#c39929" stroke-width="1.51"/><path d="M1188,330L1155,144L850,330Z" fill="#c29a28" stroke="#c29a28" stroke-width="1.51"/><path d="M831,158L1151,-69L760,-56Z" fill="#d1a024" stroke="#d1a024" stroke-width="1.51"/><path d="M143,601L461,636L452,430Z" fill="#c79b28" stroke="#c79b28" stroke-width="1.51"/><path d="M902,582L1188,330L850,330Z" fill="#be9829" stroke="#be9829" stroke-width="1.51"/><path d="M1188,330L1195,172L1155,144Z" fill="#c39a29" stroke="#c39a29" stroke-width="1.51"/><path d="M760,-56L686,-255L561,-4Z" fill="#dba421" stroke="#dba421" stroke-width="1.51"/><path d="M484,8L260,-73L272,205Z" fill="#dba521" stroke="#dba521" stroke-width="1.51"/><path d="M824,-254L686,-255L760,-56Z" fill="#dda620" stroke="#dda620" stroke-width="1.51"/><path d="M824,-254L760,-56L1151,-69Z" fill="#d7a322" stroke="#d7a322" stroke-width="1.51"/><path d="M1151,-69L831,158L1155,144Z" fill="#cb9d26" stroke="#cb9d26" stroke-width="1.51"/><path d="M272,205L198,321L452,430Z" fill="#d1a024" stroke="#d1a024" stroke-width="1.51"/><path d="M1360,53L1151,-69L1155,144Z" fill="#c99d27" stroke="#c99d27" stroke-width="1.51"/><path d="M272,205L26,44L198,321Z" fill="#d9a421" stroke="#d9a421" stroke-width="1.51"/><path d="M243,-141L260,-73L484,8Z" fill="#e1a71f" stroke="#e1a71f" stroke-width="1.51"/><path d="M902,582L1054,760L1188,330Z" fill="#b8942c" stroke="#b8942c" stroke-width="1.51"/><path d="M883,903L1054,760L902,582Z" fill="#b3912e" stroke="#b3912e" stroke-width="1.51"/><path d="M883,903L902,582L558,635Z" fill="#b8932c" stroke="#b8932c" stroke-width="1.51"/><path d="M1151,-69L984,-302L824,-254Z" fill="#d9a321" stroke="#d9a321" stroke-width="1.51"/><path d="M824,-254L984,-302L686,-255Z" fill="#dfa620" stroke="#dfa620" stroke-width="1.51"/><path d="M331,-332L243,-141L484,8Z" fill="#e4a81d" stroke="#e4a81d" stroke-width="1.51"/><path d="M260,-73L26,44L272,205Z" fill="#dea61f" stroke="#dea61f" stroke-width="1.51"/><path d="M198,321L129,504L452,430Z" fill="#ce9e26" stroke="#ce9e26" stroke-width="1.51"/><path d="M-50,366L129,504L198,321Z" fill="#d2a024" stroke="#d2a024" stroke-width="1.51"/><path d="M1054,760L1348,458L1188,330Z" fill="#b6932c" stroke="#b6932c" stroke-width="1.51"/><path d="M1188,330L1513,352L1195,172Z" fill="#bd972a" stroke="#bd972a" stroke-width="1.51"/><path d="M1195,172L1360,53L1155,144Z" fill="#c69a28" stroke="#c69a28" stroke-width="1.51"/><path d="M567,916L883,903L558,635Z" fill="#b6922d" stroke="#b6922d" stroke-width="1.51"/><path d="M567,916L558,635L461,636Z" fill="#bc962b" stroke="#bc962b" stroke-width="1.51"/><path d="M1054,760L1397,598L1348,458Z" fill="#b2912e" stroke="#b2912e" stroke-width="1.51"/><path d="M883,903L1056,833L1054,760Z" fill="#af8f2f" stroke="#af8f2f" stroke-width="1.51"/><path d="M129,504L143,601L452,430Z" fill="#cb9c27" stroke="#cb9c27" stroke-width="1.51"/><path d="M1151,-69L1216,-248L984,-302Z" fill="#d6a223" stroke="#d6a223" stroke-width="1.51"/><path d="M1513,352L1360,53L1195,172Z" fill="#c09829" stroke="#c09829" stroke-width="1.51"/><path d="M457,981L567,916L461,636Z" fill="#b9932c" stroke="#b9932c" stroke-width="1.51"/><path d="M984,-302L331,-332L686,-255Z" fill="#e4a81e" stroke="#e4a81e" stroke-width="1.51"/><path d="M686,-255L331,-332L484,8Z" fill="#e3a81e" stroke="#e3a81e" stroke-width="1.51"/><path d="M1360,53L1216,-248L1151,-69Z" fill="#cf9e25" stroke="#cf9e25" stroke-width="1.51"/><path d="M-15,-296L26,44L243,-141Z" fill="#e9aa1b" stroke="#e9aa1b" stroke-width="1.51"/><path d="M243,-141L26,44L260,-73Z" fill="#e4a81e" stroke="#e4a81e" stroke-width="1.51"/><path d="M129,504L-230,606L143,601Z" fill="#ce9d26" stroke="#ce9d26" stroke-width="1.51"/><path d="M143,601L210,821L461,636Z" fill="#c3982a" stroke="#c3982a" stroke-width="1.51"/><path d="M1348,458L1513,352L1188,330Z" fill="#b9952c" stroke="#b9952c" stroke-width="1.51"/><path d="M1305,896L1397,598L1054,760Z" fill="#ac8e2f" stroke="#ac8e2f" stroke-width="1.51"/><path d="M210,821L457,981L461,636Z" fill="#bd952c" stroke="#bd952c" stroke-width="1.51"/><path d="M567,916L457,981L883,903Z" fill="#b2902e" stroke="#b2902e" stroke-width="1.51"/><path d="M143,601L-165,751L210,821Z" fill="#c69a29" stroke="#c69a29" stroke-width="1.51"/><path d="M26,44L-50,366L198,321Z" fill="#d9a421" stroke="#d9a421" stroke-width="1.51"/><path d="M1397,598L1513,352L1348,458Z" fill="#b4922d" stroke="#b4922d" stroke-width="1.51"/><path d="M1360,53L1570,-327L1216,-248Z" fill="#d09e25" stroke="#d09e25" stroke-width="1.51"/><path d="M1513,352L1545,166L1360,53Z" fill="#be972a" stroke="#be972a" stroke-width="1.51"/><path d="M-50,366L-230,606L129,504Z" fill="#d29f25" stroke="#d29f25" stroke-width="1.51"/><path d="M26,44L-134,319L-50,366Z" fill="#dca520" stroke="#dca520" stroke-width="1.51"/><path d="M1397,598L1506,719L1513,352Z" fill="#b0902e" stroke="#b0902e" stroke-width="1.51"/><path d="M1056,833L1305,896L1054,760Z" fill="#ac8d2f" stroke="#ac8d2f" stroke-width="1.51"/><path d="M883,903L1305,896L1056,833Z" fill="#ab8e30" stroke="#ab8e30" stroke-width="1.51"/><path d="M1595,986L1305,896L883,903Z" fill="#a68b31" stroke="#a68b31" stroke-width="1.51"/><path d="M1305,896L1506,719L1397,598Z" fill="#aa8d30" stroke="#aa8d30" stroke-width="1.51"/><path d="M1776,267L1648,-37L1545,166Z" fill="#bd962a" stroke="#bd962a" stroke-width="1.51"/><path d="M26,44L-195,105L-134,319Z" fill="#e1a71e" stroke="#e1a71e" stroke-width="1.51"/><path d="M331,-332L-15,-296L243,-141Z" fill="#ecac19" stroke="#ecac19" stroke-width="1.51"/><path d="M-15,-296L-195,105L26,44Z" fill="#e9aa1b" stroke="#e9aa1b" stroke-width="1.51"/><path d="M1776,267L1545,166L1513,352Z" fill="#b9942c" stroke="#b9942c" stroke-width="1.51"/><path d="M1545,166L1648,-37L1360,53Z" fill="#c39929" stroke="#c39929" stroke-width="1.51"/><path d="M-134,319L-230,606L-50,366Z" fill="#d6a223" stroke="#d6a223" stroke-width="1.51"/><path d="M210,821L-84,1011L457,981Z" fill="#bc942d" stroke="#bc942d" stroke-width="1.51"/><path d="M-406,447L-230,606L-134,319Z" fill="#d8a323" stroke="#d8a323" stroke-width="1.51"/><path d="M-230,606L-165,751L143,601Z" fill="#cd9d27" stroke="#cd9d27" stroke-width="1.51"/><path d="M1648,-37L1570,-327L1360,53Z" fill="#ca9c28" stroke="#ca9c28" stroke-width="1.51"/><path d="M1216,-248L1570,-327L984,-302Z" fill="#d7a223" stroke="#d7a223" stroke-width="1.51"/><path d="M984,-302L1570,-327L331,-332Z" fill="#dea61f" stroke="#dea61f" stroke-width="1.51"/><path d="M1783,336L1776,267L1513,352Z" fill="#b5922d" stroke="#b5922d" stroke-width="1.51"/><path d="M1648,-37L1700,-152L1570,-327Z" fill="#cb9c28" stroke="#cb9c28" stroke-width="1.51"/><path d="M1776,-70L1700,-152L1648,-37Z" fill="#c69a29" stroke="#c69a29" stroke-width="1.51"/><path d="M1806,660L1783,336L1513,352Z" fill="#b0902e" stroke="#b0902e" stroke-width="1.51"/><path d="M-375,987L-84,1011L-165,751Z" fill="#c5982b" stroke="#c5982b" stroke-width="1.51"/><path d="M-165,751L-84,1011L210,821Z" fill="#c3982b" stroke="#c3982b" stroke-width="1.51"/><path d="M1700,-152L1885,-206L1570,-327Z" fill="#cc9c27" stroke="#cc9c27" stroke-width="1.51"/><path d="M1776,267L1776,-70L1648,-37Z" fill="#bf972b" stroke="#bf972b" stroke-width="1.51"/><path d="M1929,285L1776,-70L1776,267Z" fill="#b9942c" stroke="#b9942c" stroke-width="1.51"/><path d="M-230,606L-375,987L-165,751Z" fill="#cc9b28" stroke="#cc9b28" stroke-width="1.51"/><path d="M-195,105L-406,447L-134,319Z" fill="#dea620" stroke="#dea620" stroke-width="1.51"/><path d="M-403,-16L-406,447L-195,105Z" fill="#e5a81d" stroke="#e5a81d" stroke-width="1.51"/><path d="M1506,719L1806,660L1513,352Z" fill="#ac8e2f" stroke="#ac8e2f" stroke-width="1.51"/><path d="M1305,896L1595,986L1506,719Z" fill="#a48a31" stroke="#a48a31" stroke-width="1.51"/><path d="M457,981L1595,986L883,903Z" fill="#aa8d30" stroke="#aa8d30" stroke-width="1.51"/><path d="M-84,1011L1595,986L457,981Z" fill="#b08f2f" stroke="#b08f2f" stroke-width="1.51"/><path d="M-15,-296L-403,-16L-195,105Z" fill="#edab19" stroke="#edab19" stroke-width="1.51"/><path d="M1595,986L1806,660L1506,719Z" fill="#a48931" stroke="#a48931" stroke-width="1.51"/><path d="M1783,336L1929,285L1776,267Z" fill="#b3912d" stroke="#b3912d" stroke-width="1.51"/><path d="M1960,371L1929,285L1783,336Z" fill="#b1902e" stroke="#b1902e" stroke-width="1.51"/><path d="M1806,660L1960,371L1783,336Z" fill="#ac8e2f" stroke="#ac8e2f" stroke-width="1.51"/><path d="M-15,-296L-386,-339L-403,-16Z" fill="#f5af15" stroke="#f5af15" stroke-width="1.51"/><path d="M331,-332L-386,-339L-15,-296Z" fill="#f4af15" stroke="#f4af15" stroke-width="1.51"/><path d="M1570,-327L-386,-339L331,-332Z" fill="#e9aa1b" stroke="#e9aa1b" stroke-width="1.51"/><path d="M2006,-69L1776,-70L1929,285Z" fill="#bc952c" stroke="#bc952c" stroke-width="1.51"/><path d="M2006,-69L1885,-206L1776,-70Z" fill="#c4982a" stroke="#c4982a" stroke-width="1.51"/><path d="M1776,-70L1885,-206L1700,-152Z" fill="#c79a29" stroke="#c79a29" stroke-width="1.51"/><path d="M-406,447L-375,987L-230,606Z" fill="#d19e26" stroke="#d19e26" stroke-width="1.51"/><path d="M1806,660L1963,719L1960,371Z" fill="#a78b31" stroke="#a78b31" stroke-width="1.51"/><path d="M1837,988L1963,719L1806,660Z" fill="#a08832" stroke="#a08832" stroke-width="1.51"/><path d="M2118,86L2006,-69L1929,285Z" fill="#b8932d" stroke="#b8932d" stroke-width="1.51"/><path d="M2118,86L1929,285L2206,289Z" fill="#b1902e" stroke="#b1902e" stroke-width="1.51"/><path d="M-84,1011L1837,988L1595,986Z" fill="#a68b31" stroke="#a68b31" stroke-width="1.51"/><path d="M1595,986L1837,988L1806,660Z" fill="#9f8733" stroke="#9f8733" stroke-width="1.51"/><path d="M2206,289L1929,285L1960,371Z" fill="#ae8f2f" stroke="#ae8f2f" stroke-width="1.51"/><path d="M2153,706L2136,440L1963,719Z" fill="#a28832" stroke="#a28832" stroke-width="1.51"/><path d="M1963,719L2136,440L1960,371Z" fill="#a78b31" stroke="#a78b31" stroke-width="1.51"/><path d="M1837,988L2003,935L1963,719Z" fill="#9b8434" stroke="#9b8434" stroke-width="1.51"/><path d="M2136,440L2206,289L1960,371Z" fill="#ab8d2f" stroke="#ab8d2f" stroke-width="1.51"/><path d="M2323,807L2206,289L2136,440Z" fill="#a38931" stroke="#a38931" stroke-width="1.51"/><path d="M2003,935L2153,706L1963,719Z" fill="#9d8533" stroke="#9d8533" stroke-width="1.51"/><path d="M1885,-206L2224,-187L1570,-327Z" fill="#c99a28" stroke="#c99a28" stroke-width="1.51"/><path d="M2006,-69L2224,-187L1885,-206Z" fill="#c3972b" stroke="#c3972b" stroke-width="1.51"/><path d="M2118,86L2224,-187L2006,-69Z" fill="#bd952c" stroke="#bd952c" stroke-width="1.51"/><path d="M2206,289L2224,-187L2118,86Z" fill="#b7922d" stroke="#b7922d" stroke-width="1.51"/><path d="M2003,935L2323,807L2153,706Z" fill="#9a8434" stroke="#9a8434" stroke-width="1.51"/><path d="M2153,706L2323,807L2136,440Z" fill="#9f8733" stroke="#9f8733" stroke-width="1.51"/><path d="M2206,289L2323,807L2224,-187Z" fill="#ab8d30" stroke="#ab8d30" stroke-width="1.51"/></svg>